<?xml version="1.0" encoding="UTF-8" standalone="no"?>
<!-- Generator: Adobe Illustrator 16.0.0, SVG Export Plug-In . SVG Version: 6.00 Build 0)  -->

<svg
   version="1.1"
   id="Layer_1"
   x="0px"
   y="0px"
   width="512px"
   height="512px"
   viewBox="0 0 512 512"
   enable-background="new 0 0 512 512"
   xml:space="preserve"
   sodipodi:docname="gnostique-repost-symbolic.svg"
   inkscape:version="1.2.2 (b0a8486541, 2022-12-01)"
   xmlns:inkscape="http://www.inkscape.org/namespaces/inkscape"
   xmlns:sodipodi="http://sodipodi.sourceforge.net/DTD/sodipodi-0.dtd"
   xmlns="http://www.w3.org/2000/svg"
   xmlns:svg="http://www.w3.org/2000/svg"><defs
   id="defs184" /><sodipodi:namedview
   id="namedview182"
   pagecolor="#505050"
   bordercolor="#eeeeee"
   borderopacity="1"
   inkscape:showpageshadow="0"
   inkscape:pageopacity="0"
   inkscape:pagecheckerboard="0"
   inkscape:deskcolor="#505050"
   showgrid="false"
   inkscape:zoom="1.8867188"
   inkscape:cx="255.99999"
   inkscape:cy="255.99999"
   inkscape:window-width="1920"
   inkscape:window-height="1184"
   inkscape:window-x="0"
   inkscape:window-y="16"
   inkscape:window-maximized="1"
   inkscape:current-layer="Layer_1" />
<g
   id="g179"
   style="fill:#000000">
	<path
   fill="#020201"
   d="M175.292,123.158c55.974-0.059,182.935-0.039,238.896-0.009c9.062-0.385,17.491,7.286,17.521,16.426   c0.158,46.409-0.01,92.828,0.079,139.236c24.737,0.089,49.475-0.02,74.212,0.06c-32.91,36.401-66.107,72.547-99.176,108.8   c-1.519,2.8-3.354,0.049-4.753-1.341c-32.438-35.948-65.467-71.363-97.796-107.4c24.658-0.216,49.307,0,73.966-0.108   c0.246-34.045,0.216-68.1,0.009-102.135c-26.64-0.108-124.279,0.01-150.919-0.059C210.147,158.653,192.389,141.221,175.292,123.158   z"
   id="path175"
   style="fill:#000000" />
	<path
   fill="#020201"
   d="M105.197,124.354c1.716-3.026,3.697,0.483,5.236,1.864c32.339,35.711,65.181,70.979,97.303,106.877   c-24.708,0.247-49.416-0.06-74.124,0.148c-0.098,33.995-0.049,67.991-0.019,101.986c26.709,0.237,127.365-0.03,154.084,0.138   c17.195,17.935,34.933,35.356,51.95,53.459c-56.269,0-186.484,0.049-242.752-0.03c-9.129,0.09-17.017-8.242-16.643-17.322   c-0.05-46.093,0.029-92.177-0.029-138.261c-24.737-0.099-49.466,0.04-74.203-0.068C38.852,196.694,72.049,160.539,105.197,124.354z   "
   id="path177"
   style="fill:#000000" />
</g>
</svg>
